<?xml version="1.0" encoding="iso-8859-1"?>
<!-- Generator: Adobe Illustrator 19.0.0, SVG Export Plug-In . SVG Version: 6.00 Build 0)  -->
<svg version="1.1" id="Layer_1" xmlns="http://www.w3.org/2000/svg" xmlns:xlink="http://www.w3.org/1999/xlink" x="0px" y="0px"
	 viewBox="0 0 512 512" style="enable-background:new 0 0 512 512;" xml:space="preserve">
<path style="fill:#38699C;" d="M443.571,330.777l26.606,26.617L322.252,503.594L49.411,230.775
	c-10.143-10.165-10.143-26.628,0-36.771c2.903-2.891,6.321-4.965,9.952-6.209l262.878,262.878L443.571,330.777z"/>
<g>
	<path style="fill:#38699C;" d="M181.713,16.01l78.709,78.698c-5.895-5.884-13.639-8.82-21.361-8.82
		c-7.744,0-15.5,2.948-21.406,8.865c-6.03,6.03-8.977,13.975-8.854,21.877l-51.61-51.61l-12.238-12.25
		c-10.154-10.154-10.154-26.617,0-36.76c5.077-5.077,11.723-7.621,18.38-7.621C169.99,8.389,176.636,10.933,181.713,16.01z"/>
	<path style="fill:#38699C;" d="M443.571,330.777l-121.33,119.895L59.363,187.795l-9.941-9.952
		c-10.154-10.154-10.154-26.617,0-36.771c5.077-5.077,11.723-7.61,18.38-7.61c6.657,0,13.303,2.533,18.38,7.61l-23.065-23.065
		c-10.154-10.154-10.154-26.617,0-36.771c5.077-5.077,11.734-7.621,18.38-7.621c6.657,0,13.314,2.544,18.391,7.621L86.552,67.899
		c-10.154-10.154-10.154-26.606,0-36.76c5.077-5.077,11.723-7.621,18.38-7.621c6.646,0,13.303,2.544,18.38,7.621l33.88,33.88
		l51.61,51.61c-0.123-7.901,2.824-15.847,8.854-21.877c5.906-5.917,13.662-8.865,21.406-8.865c7.722,0,15.466,2.936,21.361,8.82
		c0.011,0.011,0.034,0.034,0.045,0.045l21.171,21.171l188.54,188.551L443.571,330.777z"/>
</g>
<g>
	<path style="fill:#FFFFFF;" d="M405.612,285.433c-2.151,0-4.302-0.82-5.943-2.462L259.017,142.319
		c-3.283-3.283-3.283-8.605,0-11.886c3.283-3.283,8.605-3.283,11.886,0l140.651,140.651c3.283,3.283,3.283,8.605,0,11.886
		C409.914,284.612,407.763,285.433,405.612,285.433z"/>
	<circle style="fill:#FFFFFF;" cx="247.031" cy="118.45" r="8.405"/>
</g>
<path style="fill:#333333;" d="M455.485,330.811l20.605-20.363c1.591-1.572,2.49-3.715,2.497-5.954
	c0.007-2.238-0.88-4.387-2.462-5.968L187.658,10.061c-13.414-13.414-35.24-13.415-48.654,0c-4.543,4.543-7.542,10.052-9.008,15.872
	l-0.74-0.741c-13.414-13.414-35.24-13.415-48.654,0c-11.003,11.003-12.974,27.663-5.925,40.7
	c-6.589,1.319-12.645,4.543-17.505,9.403c-6.498,6.498-10.076,15.137-10.076,24.327s3.578,17.829,10.076,24.327l2.175,2.175
	c-5.82,1.466-11.329,4.464-15.873,9.007c-13.414,13.414-13.414,35.24,0,48.654l2.24,2.24c-0.774,0.647-1.53,1.317-2.245,2.03
	c-13.407,13.407-13.41,35.233,0,48.658l272.836,272.826c1.641,1.641,3.791,2.462,5.943,2.462c2.135,0,4.271-0.809,5.908-2.427
	l147.928-146.203c1.591-1.573,2.49-3.716,2.497-5.954s-0.88-4.387-2.462-5.968L455.485,330.811z M145.739,34.387
	c0-4.699,1.83-9.117,5.153-12.44c6.86-6.859,18.021-6.858,24.88,0l56.207,56.206c-7.428,1.374-14.529,4.921-20.262,10.654
	c-3.266,3.266-5.87,7.016-7.759,11.085l-53.065-53.065C147.57,43.505,145.739,39.087,145.739,34.387z M55.363,147.019
	c3.323-3.323,7.741-5.153,12.44-5.153c4.699,0,9.117,1.83,12.44,5.153c0.001,0.001,0.003,0.002,0.004,0.003l85.145,85.146
	c1.641,1.641,3.793,2.462,5.943,2.462c2.151,0,4.302-0.82,5.943-2.462c3.283-3.283,3.283-8.605,0-11.886L69.06,112.063
	c-3.323-3.323-5.153-7.741-5.153-12.44s1.83-9.117,5.153-12.44c6.859-6.859,18.02-6.859,24.879,0l108.22,108.22
	c1.641,1.641,3.793,2.462,5.943,2.462s4.302-0.82,5.943-2.462c3.283-3.283,3.283-8.605,0-11.886L92.49,61.96
	c-6.859-6.86-6.859-18.02,0-24.88c6.86-6.859,18.021-6.859,24.88,0l83.248,83.248c0.934,8.751,4.788,16.858,11.099,23.169
	l72.437,72.437c3.283,3.283,8.605,3.283,11.886,0c3.283-3.283,3.283-8.605,0-11.886l-72.437-72.437
	c-4.129-4.129-6.403-9.618-6.403-15.457s2.274-11.328,6.403-15.457c8.524-8.522,22.392-8.522,30.915,0l203.739,203.74
	L322.28,438.817L55.363,171.898C48.503,165.04,48.503,153.878,55.363,147.019z M322.284,491.742L55.361,224.829
	c-6.859-6.866-6.86-18.03-0.015-24.876c0.733-0.73,1.529-1.363,2.354-1.943l258.601,258.601c1.641,1.641,3.791,2.462,5.943,2.462
	c2.135,0,4.271-0.808,5.908-2.427l115.374-114.018l14.729,14.729L322.284,491.742z"/>
<g>
</g>
<g>
</g>
<g>
</g>
<g>
</g>
<g>
</g>
<g>
</g>
<g>
</g>
<g>
</g>
<g>
</g>
<g>
</g>
<g>
</g>
<g>
</g>
<g>
</g>
<g>
</g>
<g>
</g>
</svg>
