<svg xmlns="http://www.w3.org/2000/svg" version="1.1" xmlns:xlink="http://www.w3.org/1999/xlink" width="512" height="512" x="0" y="0" viewBox="0 0 512 512" style="enable-background:new 0 0 512 512" xml:space="preserve" class=""><g><path d="M294.112 185.253c16.762-10.205 36.448-16.083 57.508-16.083h34.48M121.35 235.71v96.63c0 16.5 6.69 31.44 17.5 42.26 10.81 10.81 25.75 17.5 42.26 17.5 33 0 59.76-26.76 59.76-59.76v-52.42c0-7.997.848-15.796 2.458-23.312" style="stroke-width:20;stroke-linecap:round;stroke-linejoin:round;stroke-miterlimit:10;" fill="none" stroke="#1e6aad" stroke-width="20" stroke-linecap="round" stroke-linejoin="round" stroke-miterlimit="10" data-original="#000000" opacity="1" class=""></path><path d="M28.2 235.62v95.71c0 84.45 68.46 152.91 152.91 152.91 42.23 0 80.45-17.12 108.12-44.79 27.67-27.67 44.79-65.89 44.79-108.12v-38.01c0-17.12 13.88-31 31-31h21.26M428.98 169.17h62.94c5.57 0 10.08 4.52 10.08 10.08v72.98c0 5.57-4.51 10.09-10.08 10.09H428.8M28.2 192.93V37.85c0-5.57 4.51-10.09 10.08-10.09h72.98c5.57 0 10.09 4.52 10.09 10.09v154.99M120.957 234.719H30.272c-11.196 0-20.272-9.076-20.272-20.272v-.342c0-11.196 9.076-20.272 20.272-20.272h90.686c11.196 0 20.272 9.076 20.272 20.272v.342c-.001 11.196-9.077 20.272-20.273 20.272zM427.983 168.934v90.686c0 11.196-9.076 20.272-20.272 20.272h-.342c-11.196 0-20.272-9.076-20.272-20.272v-90.686c0-11.196 9.076-20.272 20.272-20.272h.342c11.196 0 20.272 9.076 20.272 20.272z" style="stroke-width:20;stroke-linecap:round;stroke-linejoin:round;stroke-miterlimit:10;" fill="none" stroke="#1e6aad" stroke-width="20" stroke-linecap="round" stroke-linejoin="round" stroke-miterlimit="10" data-original="#000000" opacity="1" class=""></path><path d="M119.846 113.732c-11.267 0-11.267-5.869-22.534-5.869-11.268 0-11.268 5.869-22.535 5.869-11.269 0-11.269-5.869-22.538-5.869s-11.269 5.869-22.538 5.869M80.81 398.909h0M106.892 385.016h0M114.44 428.77h0M147.072 416.826h0M159.957 449.311h0M192.54 422.876h0M224.614 436.975h0M257.224 426.754h0M238.36 401.729h0M274.017 392.917h0M300.598 367.951h0M271.393 349.623h0M195.359 453.893h0M261.308 215.745h0" style="stroke-width:20;stroke-linecap:round;stroke-linejoin:round;stroke-miterlimit:10;" fill="none" stroke="#1e6aad" stroke-width="20" stroke-linecap="round" stroke-linejoin="round" stroke-miterlimit="10" data-original="#000000" opacity="1" class=""></path></g></svg>