<svg id="visual" viewBox="0 0 900 675" width="900" height="675" xmlns="http://www.w3.org/2000/svg" xmlns:xlink="http://www.w3.org/1999/xlink" version="1.1"><rect x="0" y="0" width="900" height="675" fill="#ffffff"></rect><path d="M0 235L21.5 227.8C43 220.7 86 206.3 128.8 218.5C171.7 230.7 214.3 269.3 257.2 265C300 260.7 343 213.3 385.8 208C428.7 202.7 471.3 239.3 514.2 263.3C557 287.3 600 298.7 642.8 286.2C685.7 273.7 728.3 237.3 771.2 208.8C814 180.3 857 159.7 878.5 149.3L900 139L900 676L878.5 676C857 676 814 676 771.2 676C728.3 676 685.7 676 642.8 676C600 676 557 676 514.2 676C471.3 676 428.7 676 385.8 676C343 676 300 676 257.2 676C214.3 676 171.7 676 128.8 676C86 676 43 676 21.5 676L0 676Z" fill="#3cb5fa"></path><path d="M0 301L21.5 297.5C43 294 86 287 128.8 299C171.7 311 214.3 342 257.2 342.3C300 342.7 343 312.3 385.8 313.3C428.7 314.3 471.3 346.7 514.2 339.5C557 332.3 600 285.7 642.8 286.2C685.7 286.7 728.3 334.3 771.2 355.2C814 376 857 370 878.5 367L900 364L900 676L878.5 676C857 676 814 676 771.2 676C728.3 676 685.7 676 642.8 676C600 676 557 676 514.2 676C471.3 676 428.7 676 385.8 676C343 676 300 676 257.2 676C214.3 676 171.7 676 128.8 676C86 676 43 676 21.5 676L0 676Z" fill="#318ecc"></path><path d="M0 417L21.5 418.3C43 419.7 86 422.3 128.8 412.5C171.7 402.7 214.3 380.3 257.2 367C300 353.7 343 349.3 385.8 349.7C428.7 350 471.3 355 514.2 356.2C557 357.3 600 354.7 642.8 363.7C685.7 372.7 728.3 393.3 771.2 408.7C814 424 857 434 878.5 439L900 444L900 676L878.5 676C857 676 814 676 771.2 676C728.3 676 685.7 676 642.8 676C600 676 557 676 514.2 676C471.3 676 428.7 676 385.8 676C343 676 300 676 257.2 676C214.3 676 171.7 676 128.8 676C86 676 43 676 21.5 676L0 676Z" fill="#246aa0"></path><path d="M0 459L21.5 453C43 447 86 435 128.8 440.8C171.7 446.7 214.3 470.3 257.2 481C300 491.7 343 489.3 385.8 481.2C428.7 473 471.3 459 514.2 457.8C557 456.7 600 468.3 642.8 467C685.7 465.7 728.3 451.3 771.2 453.7C814 456 857 475 878.5 484.5L900 494L900 676L878.5 676C857 676 814 676 771.2 676C728.3 676 685.7 676 642.8 676C600 676 557 676 514.2 676C471.3 676 428.7 676 385.8 676C343 676 300 676 257.2 676C214.3 676 171.7 676 128.8 676C86 676 43 676 21.5 676L0 676Z" fill="#144875"></path><path d="M0 535L21.5 540.2C43 545.3 86 555.7 128.8 565.7C171.7 575.7 214.3 585.3 257.2 588.7C300 592 343 589 385.8 578.8C428.7 568.7 471.3 551.3 514.2 543.5C557 535.7 600 537.3 642.8 537.2C685.7 537 728.3 535 771.2 541.3C814 547.7 857 562.3 878.5 569.7L900 577L900 676L878.5 676C857 676 814 676 771.2 676C728.3 676 685.7 676 642.8 676C600 676 557 676 514.2 676C471.3 676 428.7 676 385.8 676C343 676 300 676 257.2 676C214.3 676 171.7 676 128.8 676C86 676 43 676 21.5 676L0 676Z" fill="#01284c"></path></svg>