<?xml version="1.0" encoding="iso-8859-1"?>
<!-- Generator: Adobe Illustrator 19.0.0, SVG Export Plug-In . SVG Version: 6.00 Build 0)  -->
<svg version="1.1" id="Layer_1" xmlns="http://www.w3.org/2000/svg" xmlns:xlink="http://www.w3.org/1999/xlink" x="0px" y="0px"
	 viewBox="0 0 512 512" style="enable-background:new 0 0 512 512;" xml:space="preserve">
<polygon style="fill:#B3B3B3;" points="8.014,145.644 503.521,145.644 503.521,275.118 8.014,275.118 8.014,260.28 8.014,160.956 
	"/>
<rect x="451.555" y="148.025" style="fill:#CCCCCC;" width="51.962" height="37.693"/>
<rect x="451.555" y="237.24" style="fill:#999999;" width="51.962" height="32.958"/>
<polygon style="fill:#CCCCCC;" points="454.793,273.342 454.793,282.856 425.428,282.856 425.428,273.342 425.428,148.028 
	425.428,138.514 454.793,138.514 454.793,148.028 "/>
<g>
	<polygon style="fill:#E6E6E6;" points="372.438,128.697 425.429,128.697 425.429,292.066 372.438,292.066 372.438,273.344 
		372.438,148.018 	"/>
	<polygon style="fill:#E6E6E6;" points="86.572,128.697 139.563,128.697 139.563,292.066 86.572,292.066 86.572,273.344 
		86.572,148.018 	"/>
</g>
<polygon style="fill:#CCCCCC;" points="372.438,248.464 425.429,248.464 425.429,292.066 372.438,292.066 372.438,287.068 
	372.438,253.62 "/>
<path style="fill:#FFFFFF;" d="M403.452,160.39h-9.039c-4.681,0-8.474-3.794-8.474-8.474s3.793-8.474,8.474-8.474h9.039
	c4.681,0,8.474,3.794,8.474,8.474S408.133,160.39,403.452,160.39z"/>
<rect x="8.468" y="147.414" style="fill:#CCCCCC;" width="51.962" height="37.693"/>
<rect x="8.468" y="236.629" style="fill:#999999;" width="51.962" height="32.958"/>
<rect x="142.929" y="147.414" style="fill:#CCCCCC;" width="231.613" height="37.693"/>
<rect x="142.929" y="236.629" style="fill:#999999;" width="231.613" height="32.958"/>
<g>
	<polygon style="fill:#CCCCCC;" points="57.197,272.741 57.197,282.255 86.562,282.255 86.562,272.741 86.562,147.427 
		86.562,137.913 57.197,137.913 57.197,147.427 	"/>
	<polygon style="fill:#CCCCCC;" points="139.553,247.863 86.562,247.863 86.562,291.465 139.553,291.465 139.553,286.467 
		139.553,253.019 	"/>
</g>
<g>
	<path style="fill:#FFFFFF;" d="M117.577,159.789h-9.039c-4.68,0-8.474-3.794-8.474-8.474s3.794-8.474,8.474-8.474h9.039
		c4.68,0,8.474,3.794,8.474,8.474S122.257,159.789,117.577,159.789z"/>
	<path style="fill:#FFFFFF;" d="M338.78,185.523H200.935c-4.68,0-8.474-3.794-8.474-8.474s3.794-8.474,8.474-8.474H338.78
		c4.681,0,8.474,3.794,8.474,8.474S343.46,185.523,338.78,185.523z"/>
</g>
<path style="fill:#3682C8;" d="M280.699,336.124l-24.693-35.579l-24.693,35.579c-8.29,11.945-6.843,28.111,3.439,38.393l0,0
	c11.738,11.738,30.77,11.738,42.508,0l0,0C287.54,364.235,288.988,348.069,280.699,336.124z"/>
<g>
	<circle style="fill:#FFFFFF;" cx="262.222" cy="347.018" r="8.474"/>
	<circle style="fill:#FFFFFF;" cx="170.431" cy="177.051" r="8.474"/>
</g>
<g>
	<path style="fill:#333333;" d="M503.526,264.871h-40.254V156.493h40.254c4.681,0,8.474-3.794,8.474-8.474s-3.793-8.474-8.474-8.474
		h-40.254v-1.034c0-4.68-3.793-8.474-8.474-8.474h-20.89v-1.34c0-4.68-3.793-8.474-8.474-8.474h-52.996
		c-4.681,0-8.474,3.794-8.474,8.474v10.842H148.037v-10.842c0-4.68-3.794-8.474-8.474-8.474H86.568c-4.68,0-8.474,3.794-8.474,8.474
		v0.739H57.202c-4.68,0-8.474,3.794-8.474,8.474v1.034H8.474c-4.68,0-8.474,3.794-8.474,8.474c0,4.68,3.794,8.474,8.474,8.474
		h40.254V264.27H8.474c-4.68,0-8.474,3.794-8.474,8.474s3.794,8.474,8.474,8.474h40.254v1.034c0,4.68,3.794,8.474,8.474,8.474
		h20.891v1.34c0,4.68,3.794,8.474,8.474,8.474h52.996c4.68,0,8.474-3.794,8.474-8.474v-10.251h215.925v10.251
		c0,4.68,3.793,8.474,8.474,8.474h52.996c4.681,0,8.474-3.794,8.474-8.474v-0.739h20.89c4.681,0,8.474-3.794,8.474-8.474v-1.034
		h40.254c4.681,0,8.474-3.794,8.474-8.474C511.999,268.665,508.207,264.871,503.526,264.871z M65.676,273.777V146.384h12.417
		v127.394H65.676z M131.089,283.592H95.042V137.171h36.048C131.089,137.171,131.089,283.592,131.089,283.592z M148.043,264.865
		V156.487h215.92v108.378H148.043z M416.959,283.592h-36.048V137.171h36.048V283.592z M433.907,274.379V146.985h12.416v127.394
		H433.907z"/>
	<path style="fill:#333333;" d="M287.66,331.292l-24.693-35.579c-1.583-2.281-4.184-3.643-6.961-3.643
		c-2.777,0-5.378,1.361-6.962,3.643l-24.693,35.579c-10.637,15.327-8.783,36.025,4.409,49.217
		c7.513,7.513,17.378,11.268,27.246,11.268c9.866,0,19.736-3.757,27.247-11.268C296.442,367.318,298.296,346.619,287.66,331.292
		L287.66,331.292z M271.267,368.526c-8.418,8.414-22.109,8.415-30.526,0c-7.389-7.389-8.428-18.984-2.47-27.569l17.731-25.549
		l17.732,25.549h-0.001C279.694,349.541,278.656,361.136,271.267,368.526z"/>
	<path style="fill:#333333;" d="M267.989,231.018l15.758-15.758c3.309-3.309,3.309-8.675,0-11.983
		c-3.311-3.309-8.675-3.309-11.985,0l-15.757,15.758l-15.758-15.758c-3.309-3.309-8.675-3.309-11.983,0
		c-3.309,3.309-3.309,8.675,0,11.983l15.757,15.758l-15.757,15.758c-3.309,3.309-3.309,8.675,0,11.983
		c1.654,1.654,3.824,2.482,5.992,2.482c2.168,0,4.338-0.827,5.992-2.482l15.758-15.758l15.757,15.758
		c1.655,1.655,3.824,2.482,5.993,2.482c2.168,0,4.338-0.827,5.993-2.482c3.309-3.309,3.309-8.675,0-11.983L267.989,231.018z"/>
</g>
<g>
</g>
<g>
</g>
<g>
</g>
<g>
</g>
<g>
</g>
<g>
</g>
<g>
</g>
<g>
</g>
<g>
</g>
<g>
</g>
<g>
</g>
<g>
</g>
<g>
</g>
<g>
</g>
<g>
</g>
</svg>
