<?xml version="1.0" encoding="iso-8859-1"?>
<!-- Generator: Adobe Illustrator 19.0.0, SVG Export Plug-In . SVG Version: 6.00 Build 0)  -->
<svg version="1.1" id="Layer_1" xmlns="http://www.w3.org/2000/svg" xmlns:xlink="http://www.w3.org/1999/xlink" x="0px" y="0px"
	 viewBox="0 0 512 512" style="enable-background:new 0 0 512 512;" xml:space="preserve">
<path style="fill:#35D8B9;" d="M141.684,87.433c63.03-63.03,165.6-63.03,228.638,0.008s63.03,165.6,0,228.63
	c-63.038,63.038-165.6,63.047-228.639,0.008S78.645,150.471,141.684,87.433z"/>
<path style="fill:#B9FCEF;" d="M370.321,87.441c63.038,63.038,63.03,165.6,0,228.63c-63.038,63.038-165.6,63.047-228.639,0.008"/>
<path style="fill:#3682C8;" d="M256.004,8.879c106.517,0,192.871,86.354,192.871,192.883c0,95.026-68.713,173.998-159.166,189.933
	c-10.947,1.931-22.202,2.938-33.705,2.938c-11.492,0-22.758-1.007-33.693-2.938c-90.465-15.934-159.19-94.907-159.19-189.933
	C63.121,95.233,149.474,8.879,256.004,8.879z M417.669,201.762c0-89.149-72.528-161.677-161.666-161.677
	c-89.149,0-161.677,72.528-161.677,161.677s72.528,161.666,161.677,161.666C345.141,363.428,417.669,290.912,417.669,201.762z"/>
<path style="fill:#F2F2F2;" d="M289.709,391.695v66.237h-10.722H233.02h-10.71v-66.237c10.935,1.931,22.201,2.938,33.693,2.938
	C267.507,394.633,278.762,393.626,289.709,391.695z"/>
<rect x="233.021" y="457.938" style="fill:#E6E6E6;" width="45.967" height="45.185"/>
<g>
	<path style="fill:#333333;" d="M457.761,201.761C457.761,90.51,367.251,0,256,0S54.239,90.51,54.239,201.761
		c0,96.646,68.31,177.625,159.18,197.225v58.952c0,4.907,3.978,8.885,8.885,8.885h1.829v36.291c0,4.907,3.978,8.885,8.885,8.885
		h45.968c4.908,0,8.885-3.978,8.885-8.885v-36.291h1.83c4.908,0,8.885-3.978,8.885-8.885v-58.955
		C389.455,379.38,457.761,298.404,457.761,201.761z M270.103,494.229h-28.197v-27.406h28.197V494.229z M280.818,449.053h-49.628
		v-47.058c8.133,1.002,16.411,1.526,24.809,1.526c8.402,0,16.683-0.525,24.819-1.527V449.053z M256,385.75
		c-101.453,0-183.99-82.538-183.99-183.99S154.547,17.771,256,17.771s183.99,82.538,183.99,183.99S357.453,385.75,256,385.75z"/>
	<path style="fill:#333333;" d="M256.001,31.203c-94.046,0-170.558,76.512-170.558,170.558s76.512,170.558,170.558,170.558
		s170.558-76.512,170.558-170.558C426.558,107.715,350.046,31.203,256.001,31.203z M256.001,354.548
		c-84.247,0-152.787-68.54-152.787-152.787s68.54-152.787,152.787-152.787s152.787,68.54,152.787,152.787
		C408.787,286.008,340.248,354.548,256.001,354.548z"/>
</g>
<g>
	<path style="fill:#666666;" d="M313.098,258.106H198.902c-4.907,0-8.885,3.978-8.885,8.885v44.93c0,4.907,3.978,8.885,8.885,8.885
		h114.197c4.908,0,8.885-3.978,8.885-8.885v-44.93C321.984,262.084,318.005,258.106,313.098,258.106z M207.787,275.876h20.422
		v27.159h-20.422V275.876z M245.98,303.036v-27.159h20.042v27.159H245.98z M304.213,303.036h-20.421v-27.159h20.421V303.036z"/>
	<path style="fill:#666666;" d="M256,227.075c13.958,0,25.315-11.355,25.315-25.315c0-10.829-6.848-20.064-16.43-23.674v-42.14
		c0-4.907-3.977-8.885-8.885-8.885s-8.885,3.978-8.885,8.885v42.141c-9.582,3.61-16.43,12.845-16.43,23.674
		C230.685,215.719,242.042,227.075,256,227.075z M256,209.304c-4.16,0-7.544-3.384-7.544-7.544c0-4.161,3.384-7.544,7.544-7.544
		c4.161,0,7.544,3.385,7.544,7.544C263.544,205.919,260.159,209.304,256,209.304z"/>
	<path style="fill:#666666;" d="M256,102.065c4.907,0,8.885-3.978,8.885-8.885V71.583c0-4.907-3.977-8.885-8.885-8.885
		s-8.885,3.978-8.885,8.885V93.18C247.115,98.087,251.093,102.065,256,102.065z"/>
	<path style="fill:#666666;" d="M210.514,102.767c1.314,3.609,4.72,5.849,8.35,5.849c1.009,0,2.035-0.173,3.038-0.538
		c4.612-1.679,6.989-6.777,5.311-11.389l-7.387-20.295c-1.679-4.611-6.78-6.987-11.389-5.311c-4.612,1.679-6.989,6.777-5.311,11.389
		L210.514,102.767z"/>
	<path style="fill:#666666;" d="M193.012,112.871L179.13,96.326c-3.155-3.759-8.759-4.25-12.518-1.095
		c-3.759,3.155-4.25,8.759-1.095,12.518l13.882,16.544c1.757,2.095,4.274,3.174,6.811,3.174c2.015,0,4.042-0.682,5.707-2.079
		C195.677,122.235,196.167,116.631,193.012,112.871z"/>
	<path style="fill:#666666;" d="M166.41,139.776l-18.704-10.799c-4.251-2.455-9.684-0.998-12.137,3.252
		c-2.454,4.25-0.998,9.684,3.252,12.137l18.704,10.799c1.399,0.808,2.927,1.192,4.434,1.192c3.071,0,6.057-1.593,7.703-4.444
		C172.115,147.664,170.659,142.229,166.41,139.776z"/>
	<path style="fill:#666666;" d="M150.613,174.156l-21.27-3.751c-4.828-0.853-9.441,2.374-10.293,7.207
		c-0.852,4.832,2.375,9.441,7.208,10.293l21.27,3.751c0.521,0.092,1.04,0.136,1.553,0.136c4.231,0,7.98-3.033,8.74-7.344
		C158.672,179.616,155.445,175.008,150.613,174.156z"/>
	<path style="fill:#666666;" d="M385.744,215.616l-21.269-3.751c-4.841-0.852-9.442,2.374-10.293,7.207
		c-0.853,4.832,2.374,9.441,7.207,10.293l21.269,3.751c0.522,0.092,1.041,0.136,1.554,0.136c4.231,0,7.979-3.033,8.74-7.344
		C393.803,221.077,390.576,216.468,385.744,215.616z"/>
	<path style="fill:#666666;" d="M147.527,211.865l-21.27,3.751c-4.832,0.852-8.06,5.46-7.208,10.293
		c0.761,4.311,4.509,7.344,8.74,7.344c0.512,0,1.032-0.045,1.553-0.136l21.27-3.751c4.834-0.852,8.06-5.46,7.208-10.293
		C156.968,214.24,152.365,211.014,147.527,211.865z"/>
	<path style="fill:#666666;" d="M354.182,184.449c0.761,4.311,4.509,7.344,8.74,7.344c0.513,0,1.032-0.045,1.554-0.136l21.269-3.751
		c4.832-0.852,8.06-5.46,7.207-10.293c-0.852-4.834-5.46-8.057-10.293-7.207l-21.269,3.751
		C356.556,175.008,353.329,179.616,354.182,184.449z"/>
	<path style="fill:#666666;" d="M373.181,144.366c4.25-2.454,5.706-7.888,3.252-12.137c-2.452-4.251-7.889-5.706-12.137-3.252
		l-18.704,10.799c-4.25,2.454-5.706,7.888-3.252,12.137c1.646,2.85,4.632,4.444,7.703,4.444c1.507,0,3.036-0.384,4.434-1.192
		L373.181,144.366z"/>
	<path style="fill:#666666;" d="M345.389,95.232c-3.759-3.155-9.364-2.663-12.518,1.096l-13.882,16.544
		c-3.155,3.759-2.664,9.364,1.095,12.518c1.665,1.397,3.692,2.079,5.707,2.079c2.536,0,5.054-1.08,6.811-3.174l13.882-16.544
		C349.638,103.99,349.148,98.385,345.389,95.232z"/>
	<path style="fill:#666666;" d="M290.1,108.078c1.003,0.365,2.028,0.538,3.036,0.538c3.63,0,7.037-2.24,8.351-5.849l7.385-20.295
		c1.678-4.611-0.7-9.71-5.311-11.389c-4.612-1.679-9.71,0.7-11.387,5.311l-7.385,20.295C283.11,101.301,285.487,106.4,290.1,108.078
		z"/>
</g>
<g>
</g>
<g>
</g>
<g>
</g>
<g>
</g>
<g>
</g>
<g>
</g>
<g>
</g>
<g>
</g>
<g>
</g>
<g>
</g>
<g>
</g>
<g>
</g>
<g>
</g>
<g>
</g>
<g>
</g>
</svg>
