<svg id="visual" viewBox="0 0 900 600" width="900" height="600" xmlns="http://www.w3.org/2000/svg" xmlns:xlink="http://www.w3.org/1999/xlink" version="1.1"><rect x="0" y="0" width="900" height="600" fill="#ffffff"></rect><path d="M0 356L21.5 356.8C43 357.7 86 359.3 128.8 367.8C171.7 376.3 214.3 391.7 257.2 393.5C300 395.3 343 383.7 385.8 375.5C428.7 367.3 471.3 362.7 514.2 370.3C557 378 600 398 642.8 401C685.7 404 728.3 390 771.2 394.2C814 398.3 857 420.7 878.5 431.8L900 443L900 601L878.5 601C857 601 814 601 771.2 601C728.3 601 685.7 601 642.8 601C600 601 557 601 514.2 601C471.3 601 428.7 601 385.8 601C343 601 300 601 257.2 601C214.3 601 171.7 601 128.8 601C86 601 43 601 21.5 601L0 601Z" fill="#01284c"></path><path d="M0 478L21.5 470.8C43 463.7 86 449.3 128.8 439.3C171.7 429.3 214.3 423.7 257.2 418.7C300 413.7 343 409.3 385.8 413.8C428.7 418.3 471.3 431.7 514.2 440.8C557 450 600 455 642.8 455.2C685.7 455.3 728.3 450.7 771.2 449.8C814 449 857 452 878.5 453.5L900 455L900 601L878.5 601C857 601 814 601 771.2 601C728.3 601 685.7 601 642.8 601C600 601 557 601 514.2 601C471.3 601 428.7 601 385.8 601C343 601 300 601 257.2 601C214.3 601 171.7 601 128.8 601C86 601 43 601 21.5 601L0 601Z" fill="#144875"></path><path d="M0 454L21.5 461.3C43 468.7 86 483.3 128.8 490.2C171.7 497 214.3 496 257.2 488.7C300 481.3 343 467.7 385.8 468C428.7 468.3 471.3 482.7 514.2 482.3C557 482 600 467 642.8 460.8C685.7 454.7 728.3 457.3 771.2 457.2C814 457 857 454 878.5 452.5L900 451L900 601L878.5 601C857 601 814 601 771.2 601C728.3 601 685.7 601 642.8 601C600 601 557 601 514.2 601C471.3 601 428.7 601 385.8 601C343 601 300 601 257.2 601C214.3 601 171.7 601 128.8 601C86 601 43 601 21.5 601L0 601Z" fill="#246aa0"></path><path d="M0 501L21.5 502.2C43 503.3 86 505.7 128.8 510.2C171.7 514.7 214.3 521.3 257.2 524C300 526.7 343 525.3 385.8 520.5C428.7 515.7 471.3 507.3 514.2 501.5C557 495.7 600 492.3 642.8 499C685.7 505.7 728.3 522.3 771.2 529.3C814 536.3 857 533.7 878.5 532.3L900 531L900 601L878.5 601C857 601 814 601 771.2 601C728.3 601 685.7 601 642.8 601C600 601 557 601 514.2 601C471.3 601 428.7 601 385.8 601C343 601 300 601 257.2 601C214.3 601 171.7 601 128.8 601C86 601 43 601 21.5 601L0 601Z" fill="#318ecc"></path><path d="M0 540L21.5 538.3C43 536.7 86 533.3 128.8 533.2C171.7 533 214.3 536 257.2 538C300 540 343 541 385.8 546.2C428.7 551.3 471.3 560.7 514.2 562.2C557 563.7 600 557.3 642.8 551.5C685.7 545.7 728.3 540.3 771.2 536.8C814 533.3 857 531.7 878.5 530.8L900 530L900 601L878.5 601C857 601 814 601 771.2 601C728.3 601 685.7 601 642.8 601C600 601 557 601 514.2 601C471.3 601 428.7 601 385.8 601C343 601 300 601 257.2 601C214.3 601 171.7 601 128.8 601C86 601 43 601 21.5 601L0 601Z" fill="#3cb5fa"></path></svg>