<svg xmlns="http://www.w3.org/2000/svg" version="1.1" xmlns:xlink="http://www.w3.org/1999/xlink" width="512" height="512" x="0" y="0" viewBox="0 0 128 128" style="enable-background:new 0 0 512 512" xml:space="preserve" class=""><g><path d="M97.2 32.172v34.413H65.819a.84.84 0 0 1-.736-.432L60.26 57.54a.832.832 0 0 1-.085-.618l2.26-9.249-9.452 9.79 4.231 7.878a.845.845 0 0 1-.745 1.244H30.8V32.172z" fill="#0066b3" opacity="1" data-original="#000000" class=""></path><rect width="20.105" height="49.458" x="98.895" y="24.658" rx="2.445" fill="#0066b3" opacity="1" data-original="#000000" class=""></rect><rect width="20.105" height="49.458" x="9" y="24.658" rx="2.445" fill="#0066b3" opacity="1" data-original="#000000" class=""></rect><path d="M71.133 94.254a9.088 9.088 0 1 1-18.175 0c0-4.73 8.013-18.344 8.36-18.92a.877.877 0 0 1 1.455 0c.338.576 8.36 14.19 8.36 18.92z" fill="#0066b3" opacity="1" data-original="#000000" class=""></path></g></svg>