<?xml version="1.0" encoding="iso-8859-1"?>
<!-- Generator: Adobe Illustrator 19.0.0, SVG Export Plug-In . SVG Version: 6.00 Build 0)  -->
<svg version="1.1" id="Layer_1" xmlns="http://www.w3.org/2000/svg" xmlns:xlink="http://www.w3.org/1999/xlink" x="0px" y="0px"
	 viewBox="0 0 512 512" style="enable-background:new 0 0 512 512;" xml:space="preserve">
<rect x="8.593" y="166.627" style="fill:#CCCCCC;" width="494.816" height="178.736"/>
<rect x="8.593" y="303.443" style="fill:#B3B3B3;" width="494.816" height="41.933"/>
<rect x="238.3" y="139.589" style="fill:#808080;" width="35.39" height="232.824"/>
<rect x="238.3" y="314.866" style="fill:#4D4D4D;" width="35.39" height="57.547"/>
<g>
	<rect x="350.06" y="324.169" style="fill:#808080;" width="33.786" height="56.035"/>
	<rect x="350.06" y="227.989" style="fill:#808080;" width="33.786" height="56.023"/>
	<rect x="350.06" y="131.81" style="fill:#808080;" width="33.786" height="56.023"/>
	<polygon style="fill:#808080;" points="161.933,187.832 128.147,187.832 128.147,131.809 161.944,131.809 161.944,187.832 	"/>
	<rect x="128.143" y="227.989" style="fill:#808080;" width="33.786" height="56.023"/>
	<polygon style="fill:#808080;" points="161.933,324.168 161.944,324.168 161.944,380.202 128.147,380.202 128.147,324.168 	"/>
</g>
<g>
	<polygon style="fill:#3682C8;" points="350.064,324.168 350.064,380.202 350.064,400.343 273.693,400.343 273.693,372.412 
		273.693,139.588 273.693,111.657 350.064,111.657 350.064,131.809 350.064,187.832 350.064,227.988 350.064,284.011 	"/>
	<polygon style="fill:#3682C8;" points="238.303,372.412 238.303,400.343 161.944,400.343 161.944,380.202 161.944,324.168 
		161.944,284.011 161.944,227.988 161.944,187.832 161.944,131.809 161.944,111.657 238.303,111.657 238.303,139.588 	"/>
</g>
<g>
	<polygon style="fill:#3682C8;" points="350.064,386.742 350.064,396.747 350.064,400.343 273.693,400.343 273.693,395.356 
		273.693,353.785 273.693,348.798 350.064,348.798 350.064,352.397 350.064,362.4 350.064,369.569 350.064,379.572 	"/>
	<polygon style="fill:#3682C8;" points="238.303,395.356 238.303,400.343 161.944,400.343 161.944,396.747 161.944,386.742 
		161.944,379.572 161.944,369.569 161.944,362.4 161.944,352.397 161.944,348.798 238.303,348.798 238.303,353.785 	"/>
</g>
<g>
	<path style="fill:#FFFFFF;" d="M325.99,152.781h-26.348c-4.747,0-8.593-3.847-8.593-8.593c0-4.745,3.846-8.593,8.593-8.593h26.348
		c4.747,0,8.593,3.847,8.593,8.593C334.582,148.933,330.735,152.781,325.99,152.781z"/>
	<path style="fill:#FFFFFF;" d="M488.667,209.488h-72.174c-4.747,0-8.593-3.847-8.593-8.593s3.846-8.593,8.593-8.593h72.174
		c4.747,0,8.593,3.847,8.593,8.593S493.413,209.488,488.667,209.488z"/>
	<path style="fill:#FFFFFF;" d="M65.935,209.488H29.848c-4.745,0-8.593-3.847-8.593-8.593s3.847-8.593,8.593-8.593h36.088
		c4.745,0,8.593,3.847,8.593,8.593S70.68,209.488,65.935,209.488z"/>
	<path style="fill:#FFFFFF;" d="M215.438,152.781H187.37c-4.745,0-8.593-3.847-8.593-8.593c0-4.745,3.847-8.593,8.593-8.593h28.068
		c4.745,0,8.593,3.847,8.593,8.593C224.031,148.933,220.183,152.781,215.438,152.781z"/>
</g>
<path style="fill:#333333;" d="M503.407,336.777H392.444v-12.608c0-4.745-3.846-8.593-8.593-8.593h-25.201v-22.97h25.201
	c4.747,0,8.593-3.847,8.593-8.593v-56.028c0-4.745-3.846-8.593-8.593-8.593h-25.201v-22.968h25.201c4.747,0,8.593-3.847,8.593-8.593
	v-12.608h110.963c4.747,0,8.593-3.847,8.593-8.593c0-4.745-3.846-8.593-8.593-8.593H392.444v-26.236
	c0-4.745-3.846-8.593-8.593-8.593h-25.201v-11.556c0-4.745-3.846-8.593-8.593-8.593h-76.364c-4.747,0-8.593,3.847-8.593,8.593V131
	h-18.204v-19.346c0-4.745-3.847-8.593-8.593-8.593h-76.364c-4.745,0-8.593,3.847-8.593,8.593v11.556h-25.203
	c-4.745,0-8.593,3.847-8.593,8.593v26.236H8.593c-4.745,0-8.593,3.847-8.593,8.593c0,4.745,3.847,8.593,8.593,8.593h110.962v12.608
	c0,4.745,3.847,8.593,8.593,8.593h25.197v22.968h-25.197c-4.745,0-8.593,3.847-8.593,8.593v56.028c0,4.745,3.847,8.593,8.593,8.593
	h25.197v22.97h-25.197c-4.745,0-8.593,3.847-8.593,8.593v12.608H8.593c-4.745,0-8.593,3.847-8.593,8.593
	c0,4.745,3.847,8.593,8.593,8.593h110.962v26.235c0,4.745,3.847,8.593,8.593,8.593h25.202v11.556c0,4.745,3.847,8.593,8.593,8.593
	h76.364c4.745,0,8.593-3.847,8.593-8.593V381h18.204v19.346c0,4.745,3.846,8.593,8.593,8.593h76.364
	c4.747,0,8.593-3.847,8.593-8.593v-11.556h25.201c4.747,0,8.593-3.847,8.593-8.593v-26.235h110.963c4.747,0,8.593-3.847,8.593-8.593
	C512,340.624,508.154,336.777,503.407,336.777z M136.739,179.24v-38.844h16.61l-0.006,38.844H136.739z M136.739,275.423V236.58
	h16.604v38.843L136.739,275.423L136.739,275.423z M136.739,371.605v-38.844h16.604l0.006,38.843h-16.61V371.605z M229.713,391.754
	h-59.179V120.247h59.179V391.754z M246.898,363.816V148.185h18.204v215.632h-18.204V363.816z M375.259,236.579v38.843h-16.609
	v-38.843L375.259,236.579L375.259,236.579z M375.259,140.396v38.844h-16.609v-38.844
	C358.651,140.396,375.259,140.396,375.259,140.396z M341.465,391.754h-59.179V120.247h59.179V391.754z M358.651,371.605v-38.844
	h16.609v38.843h-16.609V371.605z"/>
<g>
</g>
<g>
</g>
<g>
</g>
<g>
</g>
<g>
</g>
<g>
</g>
<g>
</g>
<g>
</g>
<g>
</g>
<g>
</g>
<g>
</g>
<g>
</g>
<g>
</g>
<g>
</g>
<g>
</g>
</svg>
