<svg enable-background="new 0 0 128 128" viewBox="0 0 128 128" xmlns="http://www.w3.org/2000/svg"><g id="Icon" display="none"><g style="display:inline;fill:none;stroke:rgb(21,69,150);stroke-width:2;stroke-linecap:round;stroke-linejoin:round;stroke-miterlimit:10"><path d="m24.22 66.43h31.36l-5.16-10.42 13.55-12.32-3.13 13.44 6.26 9.3h36.68"/><path d="m103.78 30.05h-79.56"/><path d="m103.78 23.917v48.638c0 .967.784 1.752 1.752 1.752h17.717c.967 0 1.752-.784 1.752-1.752v-48.638c0-.967-.784-1.752-1.752-1.752h-17.717c-.968.001-1.752.785-1.752 1.752z"/><path d="m3 23.917v48.638c0 .967.784 1.752 1.752 1.752h17.717c.967 0 1.752-.784 1.752-1.752v-48.638c0-.967-.784-1.752-1.752-1.752h-17.717c-.968.001-1.752.785-1.752 1.752z"/><path d="m61.844 80.168s-8.084 13.118-8.084 17.583 3.619 8.084 8.084 8.084 8.084-3.619 8.084-8.084-8.084-17.583-8.084-17.583z"/></g></g><g id="Glyph"><g><g><path d="m100.78 29.05v38.38h-33.68c-.33 0-.64-.17-.83-.44l-6.26-9.3c-.16-.23-.21-.51-.15-.78l2.4-10.32-10.61 9.66 4.83 9.73c.15.31.13.68-.05.97-.18.3-.5.48-.85.48h-28.36v-38.38z"/></g><g><path d="m126 23.92v48.64c0 1.51-1.23 2.75-2.75 2.75h-17.72c-1.52 0-2.75-1.24-2.75-2.75v-48.64c0-1.52 1.23-2.75 2.75-2.75h17.72c1.52 0 2.75 1.23 2.75 2.75z"/><path d="m25.22 23.92v48.64c0 1.51-1.23 2.75-2.75 2.75h-17.72c-1.52 0-2.75-1.24-2.75-2.75v-48.64c0-1.52 1.23-2.75 2.75-2.75h17.72c1.52 0 2.75 1.23 2.75 2.75z"/></g><g><path d="m70.93 97.75c0 5.01-4.08 9.08-9.09 9.08-5 0-9.08-4.07-9.08-9.08 0-4.61 7.39-16.74 8.23-18.11.37-.59 1.34-.59 1.71 0 .84 1.37 8.23 13.5 8.23 18.11z"/></g></g></g><g id="Line_color" display="none"><g style="display:inline;stroke:rgb(0,0,0);stroke-width:2;stroke-linecap:round;stroke-linejoin:round;stroke-miterlimit:10"><path d="m110.847 30.047v36.38h-43.749l-6.262-9.293 3.131-13.443-13.543 12.324 5.156 10.412h-39.31v-36.38z" fill="rgb(0,0,0)"/><path d="m103.78 23.917v48.638c0 .967.784 1.752 1.752 1.752h17.717c.967 0 1.752-.784 1.752-1.752v-48.638c0-.967-.784-1.752-1.752-1.752h-17.717c-.968.001-1.752.785-1.752 1.752z" fill="rgb(0,0,0)"/><path d="m3 23.917v48.638c0 .967.784 1.752 1.752 1.752h17.717c.967 0 1.752-.784 1.752-1.752v-48.638c0-.967-.784-1.752-1.752-1.752h-17.717c-.968.001-1.752.785-1.752 1.752z" fill="rgb(0,0,0)"/><path d="m61.844 80.168s-8.084 13.118-8.084 17.583 3.619 8.084 8.084 8.084 8.084-3.619 8.084-8.084-8.084-17.583-8.084-17.583z" fill="rgb(0,0,0)"/></g></g><g id="Flat" display="none"><g display="inline"><path d="m111.615 29.491v36.976h-44.466l-6.365-9.446 3.183-13.663-13.766 12.526 5.241 10.583h-39.954v-36.976z" fill="rgb(0,0,0)"/><path d="m104.432 23.26v49.436c0 .983.797 1.78 1.78 1.78h18.008c.983 0 1.78-.797 1.78-1.78v-49.436c0-.983-.797-1.78-1.78-1.78h-18.008c-.983 0-1.78.797-1.78 1.78z" fill="rgb(0,0,0)"/><path d="m2 23.26v49.436c0 .983.797 1.78 1.78 1.78h18.008c.983 0 1.78-.797 1.78-1.78v-49.436c0-.983-.797-1.78-1.78-1.78h-18.008c-.983 0-1.78.797-1.78 1.78z" fill="rgb(0,0,0)"/><path d="m61.809 80.433s-8.216 13.333-8.216 17.871 3.679 8.216 8.216 8.216 8.216-3.679 8.216-8.216c0-4.538-8.216-17.871-8.216-17.871z" fill="rgb(0,0,0)"/></g></g></svg>