<svg xmlns="http://www.w3.org/2000/svg" version="1.1" xmlns:xlink="http://www.w3.org/1999/xlink" width="512" height="512" x="0" y="0" viewBox="0 0 511.874 511.874" style="enable-background:new 0 0 512 512" xml:space="preserve" class=""><g><path d="M501.938 125.937h-50v-60h50c13.254-.492 13.244-19.513 0-20h-50v-20c0-5.523-4.478-10-10-10h-70c-5.522 0-10 4.477-10 10v10h-146c-172.23 5.715-190.939 245.267-22.314 278.207a140.464 140.464 0 0 0 22.314 1.792h80c10.841 0 20 9.159 20 20s-9.159 20-20 20h-146v-10c0-5.523-4.477-10-10-10h-70c-5.523 0-10 4.477-10 10v20h-50c-13.254.492-13.244 19.513 0 20h50v60h-50c-13.254.492-13.244 19.513 0 20h50v20c0 5.523 4.477 10 10 10h70c5.523 0 10-4.477 10-10v-10h146c171.964-5.679 191.018-244.735 22.752-278.135a140.49 140.49 0 0 0-22.752-1.865h-80c-10.841 0-20-9.159-20-20s9.159-20 20-20h146v10c0 5.523 4.478 10 10 10h70c5.522 0 10-4.477 10-10v-20h50c13.253-.491 13.243-19.512 0-19.999zm-372.001 350h-50v-120h50zm20-99.999h30v80h-30zM315.44 217.537c143.842 28.168 127.441 234.42-19.502 238.4h-96v-80h96c53.006-2.018 52.966-78.002 0-80h-30v-80h30c6.498.001 13.059.539 19.502 1.6zm-139.503-41.599c0 22.056 17.944 40 40 40h30v80h-30c-65.003.643-120.446-55.081-119.999-120 0-66.168 53.831-120 119.999-120h95.999v80h-95.999c-22.056-.001-40 17.943-40 40zm156-40.001v-80h30.001v80zm100.001 20.001h-50v-120h50z" fill="#000000" opacity="0.12156862745098039" data-original="#000000" class=""></path></g></svg>