<?xml version="1.0" encoding="iso-8859-1"?>
<!-- Generator: Adobe Illustrator 19.0.0, SVG Export Plug-In . SVG Version: 6.00 Build 0)  -->
<svg version="1.1" id="Layer_1" xmlns="http://www.w3.org/2000/svg" xmlns:xlink="http://www.w3.org/1999/xlink" x="0px" y="0px"
	 viewBox="0 0 512 512" style="enable-background:new 0 0 512 512;" xml:space="preserve">
<polygon style="fill:#B3B3B3;" points="503.981,156.854 8.474,156.854 8.474,286.329 503.981,286.329 503.981,271.492 
	503.981,172.168 "/>
<rect x="8.474" y="159.233" style="fill:#CCCCCC;" width="51.962" height="37.693"/>
<rect x="8.474" y="248.448" style="fill:#999999;" width="51.962" height="32.958"/>
<polygon style="fill:#CCCCCC;" points="57.202,284.553 57.202,294.067 86.568,294.067 86.568,284.553 86.568,159.239 
	86.568,149.725 57.202,149.725 57.202,159.239 "/>
<polygon style="fill:#E6E6E6;" points="139.559,139.907 86.568,139.907 86.568,303.276 139.559,303.276 139.559,284.554 
	139.559,159.228 "/>
<polygon style="fill:#CCCCCC;" points="139.559,259.674 86.568,259.674 86.568,303.276 139.559,303.276 139.559,298.28 
	139.559,264.831 "/>
<path style="fill:#FFFFFF;" d="M117.582,171.601h-9.039c-4.681,0-8.474-3.794-8.474-8.474c0-4.68,3.793-8.474,8.474-8.474h9.039
	c4.681,0,8.474,3.794,8.474,8.474C126.056,167.806,122.263,171.601,117.582,171.601z"/>
<rect x="451.566" y="158.634" style="fill:#CCCCCC;" width="51.962" height="37.693"/>
<rect x="451.566" y="247.849" style="fill:#999999;" width="51.962" height="32.958"/>
<rect x="137.461" y="158.634" style="fill:#CCCCCC;" width="231.613" height="37.693"/>
<rect x="137.461" y="247.849" style="fill:#999999;" width="231.613" height="32.958"/>
<polygon style="fill:#CCCCCC;" points="454.799,283.952 454.799,293.466 425.433,293.466 425.433,283.952 425.433,158.637 
	425.433,149.124 454.799,149.124 454.799,158.637 "/>
<polygon style="fill:#E6E6E6;" points="372.443,139.306 425.435,139.306 425.435,302.675 372.443,302.675 372.443,283.953 
	372.443,158.627 "/>
<polygon style="fill:#CCCCCC;" points="372.443,259.073 425.435,259.073 425.435,302.675 372.443,302.675 372.443,297.679 
	372.443,264.23 "/>
<g>
	<path style="fill:#FFFFFF;" d="M403.457,170.999h-9.039c-4.681,0-8.474-3.794-8.474-8.474s3.793-8.474,8.474-8.474h9.039
		c4.681,0,8.474,3.794,8.474,8.474S408.138,170.999,403.457,170.999z"/>
	<path style="fill:#FFFFFF;" d="M311.061,196.735H173.216c-4.681,0-8.474-3.794-8.474-8.474s3.793-8.474,8.474-8.474h137.845
		c4.681,0,8.474,3.794,8.474,8.474S315.74,196.735,311.061,196.735z"/>
</g>
<path style="fill:#5399D6;" d="M297.981,148.666h-83.952c-9.471,0-17.148,7.678-17.148,17.148v110.347
	c0,9.471,7.678,17.148,17.148,17.148h83.952c9.471,0,17.148-7.677,17.148-17.148V165.814
	C315.129,156.344,307.452,148.666,297.981,148.666z"/>
<path style="fill:#5399D6;" d="M315.129,261.953H196.88v11.415c0,11.013,8.928,19.941,19.941,19.941h78.365
	c11.013,0,19.941-8.928,19.941-19.941v-11.415H315.129z"/>
<path style="fill:#5399D6;" d="M196.88,177.468h118.248v-11.415c0-11.013-8.928-19.941-19.941-19.941h-78.365
	c-11.013,0-19.941,8.928-19.941,19.941v11.415H196.88z"/>
<rect x="234.833" y="293.315" style="fill:#5399D6;" width="51.939" height="79.385"/>
<rect x="234.833" y="293.315" style="fill:#5399D6;" width="51.939" height="31.67"/>
<circle style="fill:#FFFFFF;" cx="341.573" cy="188.259" r="8.474"/>
<path style="fill:#333333;" d="M503.526,275.478h-40.254V167.1h40.254c4.681,0,8.474-3.794,8.474-8.474s-3.793-8.474-8.474-8.474
	h-40.254v-1.034c0-4.68-3.793-8.474-8.474-8.474h-20.89v-1.34c0-4.68-3.793-8.474-8.474-8.474h-52.996
	c-4.681,0-8.474,3.794-8.474,8.474v10.847h-45.728c-4.691-6.052-12.023-9.958-20.255-9.958h-83.952
	c-8.232,0-15.565,3.907-20.256,9.958h-45.735v-10.847c0-4.68-3.793-8.474-8.474-8.474H86.568c-4.681,0-8.474,3.794-8.474,8.474
	v0.739H57.202c-4.681,0-8.474,3.794-8.474,8.474v1.034H8.474c-4.681,0-8.474,3.794-8.474,8.474s3.793,8.474,8.474,8.474h40.254
	v108.378H8.474c-4.681,0-8.474,3.794-8.474,8.474c0,4.68,3.793,8.474,8.474,8.474h40.254v1.034c0,4.68,3.793,8.474,8.474,8.474
	h20.891v1.34c0,4.68,3.793,8.474,8.474,8.474h52.996c4.681,0,8.474-3.794,8.474-8.474v-10.248h46.206
	c4.704,5.712,11.825,9.359,19.784,9.359h12.331v70.912c0,4.68,3.793,8.474,8.474,8.474h51.939c4.681,0,8.474-3.794,8.474-8.474
	v-70.912h2.733c7.959,0,15.08-3.648,19.784-9.359h46.2v10.248c0,4.68,3.793,8.474,8.474,8.474h52.996
	c4.681,0,8.474-3.794,8.474-8.474v-0.739h20.89c4.681,0,8.474-3.794,8.474-8.474v-1.034h40.254c4.681,0,8.474-3.794,8.474-8.474
	C512,279.272,508.207,275.478,503.526,275.478z M65.676,284.385c0,0,0.003-126.337,0.003-126.36c0-0.023-0.003-0.043-0.003-0.066
	v-0.968h12.417v127.394H65.676z M131.089,294.199H95.042V147.778h36.048C131.089,147.778,131.089,294.199,131.089,294.199z
	 M306.654,165.814v78.451L275.62,157.14h22.361C302.764,157.14,306.654,161.032,306.654,165.814z M257.628,157.14l7.097,19.924
	l-26.081,56.414l-27.065-75.98c0.777-0.229,1.599-0.358,2.45-0.358H257.628z M148.042,167.099h40.364v108.378h-40.364V167.099z
	 M205.354,276.161V190.53l33.592,94.305h-4.112h-20.806C209.245,284.836,205.354,280.944,205.354,276.161z M278.3,364.222h-34.991
	v-62.438H278.3V364.222z M286.774,284.836h-29.836l-10.168-28.545l26.081-56.414l29.778,83.596
	c-1.346,0.859-2.938,1.363-4.648,1.363L286.774,284.836L286.774,284.836z M323.602,275.477V167.099h40.361v108.378H323.602z
	 M416.959,294.199h-36.048V147.778h36.048V294.199z M433.907,284.986V157.592h12.416v127.394H433.907z"/>
<g>
</g>
<g>
</g>
<g>
</g>
<g>
</g>
<g>
</g>
<g>
</g>
<g>
</g>
<g>
</g>
<g>
</g>
<g>
</g>
<g>
</g>
<g>
</g>
<g>
</g>
<g>
</g>
<g>
</g>
</svg>
