<?xml version="1.0" standalone="no"?>
<!DOCTYPE svg PUBLIC "-//W3C//DTD SVG 20010904//EN"
 "http://www.w3.org/TR/2001/REC-SVG-20010904/DTD/svg10.dtd">
<svg version="1.0" xmlns="http://www.w3.org/2000/svg"
 width="342.000000pt" height="350.000000pt" viewBox="0 0 342.000000 350.000000"
 preserveAspectRatio="xMidYMid meet">

<g transform="translate(0.000000,350.000000) scale(0.100000,-0.100000)"
fill="#000000" stroke="none">
<path d="M0 1750 l0 -1750 1710 0 1710 0 0 1750 0 1750 -1710 0 -1710 0 0
-1750z m1604 1634 c9 -8 16 -22 16 -29 0 -19 -28 -45 -49 -45 -39 0 -57 60
-23 79 24 15 38 13 56 -5z m130 0 c33 -32 13 -67 -35 -62 -27 2 -35 8 -37 26
-7 46 40 69 72 36z m138 -19 c8 -19 8 -28 -2 -40 -24 -29 -80 -15 -80 19 0 49
62 65 82 21z m-385 -23 c6 -27 -16 -52 -47 -52 -42 0 -56 65 -18 79 33 12 57
2 65 -27z m503 24 c6 -8 10 -25 8 -38 -2 -18 -10 -24 -35 -26 -27 -3 -35 1
-44 22 -9 20 -9 29 1 41 16 19 54 19 70 1z m124 -32 c19 -18 19 -20 6 -45 -12
-21 -50 -25 -68 -7 -13 13 -16 50 -5 61 12 13 51 7 67 -9z m-754 -9 c16 -20 6
-43 -24 -57 -31 -14 -56 3 -56 37 0 35 56 49 80 20z m-120 -34 c14 -26 3 -50
-26 -57 -35 -9 -54 2 -54 30 0 43 60 63 80 27z m991 9 c23 -13 26 -58 4 -66
-43 -17 -92 29 -65 61 15 18 34 19 61 5z m-1127 -43 c27 -20 17 -59 -17 -72
-24 -8 -31 -6 -43 10 -18 25 -18 31 6 55 24 24 30 24 54 7z m1250 -3 c39 -39
-3 -90 -50 -59 -26 17 -31 44 -12 63 17 17 44 15 62 -4z m120 -63 c20 -22 14
-56 -11 -65 -21 -8 -63 20 -63 42 0 41 45 55 74 23z m-1480 -13 c23 -37 -35
-76 -70 -48 -18 16 -18 35 2 55 20 20 53 16 68 -7z m779 -123 c53 -116 55
-144 12 -185 -35 -33 -104 -33 -139 -1 -47 44 -44 72 15 188 30 56 56 103 59
103 3 0 27 -47 53 -105z m814 59 c16 -26 16 -27 -6 -46 -21 -16 -26 -17 -45
-5 -25 17 -32 43 -16 62 19 23 48 18 67 -11z m-1689 -7 c5 -23 -25 -57 -49
-57 -26 0 -43 35 -29 61 15 26 73 24 78 -4z m-118 -51 c28 -35 -11 -93 -47
-70 -27 17 -28 50 -1 68 28 20 32 20 48 2z m1900 -6 c23 -23 25 -41 8 -58 -19
-19 -45 -14 -62 10 -20 28 -20 33 0 52 20 21 30 20 54 -4z m92 -77 c38 -34 9
-86 -37 -65 -18 9 -25 19 -25 41 0 41 30 53 62 24z m-2088 -9 c20 -19 20 -24
0 -52 -33 -48 -92 -6 -59 44 18 28 37 31 59 8z m2180 -90 c32 -32 8 -82 -33
-69 -26 8 -38 50 -21 70 16 19 35 19 54 -1z m-2280 0 c10 -4 16 -18 16 -35 0
-22 -7 -32 -26 -41 -22 -11 -28 -10 -40 7 -18 24 -18 40 2 59 17 18 24 19 48
10z m-80 -100 c19 -19 20 -35 3 -58 -8 -11 -23 -17 -38 -14 -31 4 -40 55 -13
75 23 17 29 16 48 -3z m2451 -8 c13 -20 14 -29 5 -46 -24 -44 -88 0 -69 48 11
29 44 28 64 -2z m69 -95 c21 -23 18 -49 -6 -65 -37 -23 -76 35 -48 70 17 19
34 18 54 -5z m-2596 -3 c7 -7 12 -21 12 -33 0 -46 -53 -62 -71 -21 -21 45 26
87 59 54z m1249 -48 c29 0 34 -4 40 -30 l6 -30 303 0 304 0 0 23 c0 38 19 47
100 47 81 0 100 -9 100 -46 0 -17 10 -25 53 -39 127 -41 242 -157 261 -265 9
-51 10 -907 1 -962 -7 -45 -6 -48 14 -48 48 0 82 -80 46 -110 -16 -14 -382
-19 -423 -6 -23 8 -37 53 -27 86 4 12 18 23 35 26 17 4 30 14 34 27 7 30 -5
207 -16 213 -4 3 -82 2 -173 -2 l-165 -7 0 -113 0 -113 33 -9 c29 -7 32 -12
35 -51 2 -24 -1 -48 -6 -53 -14 -14 -430 -12 -448 3 -32 26 -4 109 37 109 19
0 19 11 19 480 l0 480 -65 0 c-61 0 -65 -1 -65 -23 0 -38 -19 -47 -95 -47 -76
0 -95 9 -95 47 l0 22 -277 3 c-153 2 -285 2 -293 0 -12 -2 -14 -19 -12 -92 l3
-90 199 0 c169 0 207 -3 262 -20 102 -31 197 -107 249 -196 16 -28 29 -60 29
-70 0 -11 9 -27 20 -37 17 -14 20 -29 20 -91 0 -48 -5 -79 -13 -88 -7 -7 -18
-28 -25 -46 -30 -87 -140 -210 -225 -251 -68 -33 -163 -41 -519 -41 -324 0
-338 -1 -338 -19 0 -29 -25 -43 -72 -39 l-43 3 -3 214 c-2 153 1 217 9 228 16
18 89 13 100 -7 4 -8 10 -23 13 -33 5 -17 19 -18 158 -17 84 1 230 4 323 7
l170 6 0 86 0 86 -215 1 c-246 1 -290 11 -385 84 -71 54 -145 161 -145 208 0
11 -7 25 -15 32 -20 17 -22 175 -2 187 7 4 19 28 26 52 18 61 51 110 108 160
116 103 158 111 565 111 l328 0 0 25 c0 33 26 47 79 40 24 -3 59 -5 78 -5z
m1413 -54 c16 -20 9 -56 -12 -70 -26 -16 -63 23 -54 58 7 30 45 36 66 12z
m-2716 -15 c13 -14 14 -24 6 -45 -8 -22 -15 -27 -38 -24 -22 2 -28 9 -30 33
-3 19 2 33 14 42 23 17 28 16 48 -6z m2771 -136 c0 -16 -8 -33 -18 -39 -15 -9
-22 -7 -38 13 -24 29 -24 57 -1 70 25 15 57 -10 57 -44z m-2841 22 c12 -9 17
-23 14 -42 -2 -26 -7 -30 -32 -30 -40 0 -54 26 -33 59 20 30 26 31 51 13z
m2882 -105 c18 -12 24 -42 14 -63 -13 -23 -55 -25 -64 -3 -19 48 14 91 50 66z
m-2906 -50 c0 -34 -16 -52 -47 -52 -46 0 -54 73 -10 89 31 12 57 -5 57 -37z
m2944 -81 c27 -29 17 -65 -18 -69 -31 -4 -46 10 -46 44 0 22 17 44 35 44 7 0
20 -9 29 -19z m-2984 -16 c24 -28 -13 -82 -49 -70 -27 8 -34 34 -16 61 17 27
47 31 65 9z m3025 -125 c8 -25 -11 -60 -33 -60 -26 0 -42 20 -42 52 0 50 60
57 75 8z m-3055 4 c17 -20 2 -67 -23 -72 -24 -5 -47 16 -47 42 0 42 45 61 70
30z m3058 -106 c17 -17 15 -54 -4 -72 -25 -26 -49 -16 -59 25 -11 42 34 76 63
47z m-3070 -20 c28 -28 3 -84 -34 -76 -28 5 -40 33 -26 62 12 28 40 34 60 14z
m3073 -119 c23 -44 -25 -91 -59 -57 -13 13 -16 60 -5 71 14 15 53 6 64 -14z
m-3077 -2 c26 -19 18 -71 -12 -75 -46 -7 -69 40 -36 72 19 19 25 20 48 3z
m3070 -116 c30 -33 -2 -89 -44 -76 -36 11 -22 95 15 95 7 0 20 -9 29 -19z
m-3053 -32 c8 -16 8 -28 0 -45 -18 -41 -71 -25 -71 21 0 44 50 61 71 24z m13
-112 c39 -29 -1 -106 -41 -81 -25 16 -29 65 -7 81 10 7 21 13 24 13 3 0 14 -6
24 -13z m3024 -20 c6 -54 -48 -80 -69 -33 -16 35 4 68 39 64 21 -2 28 -9 30
-31z m-2993 -113 c9 -9 15 -28 13 -43 -6 -48 -78 -36 -78 13 0 42 36 59 65 30z
m2963 -1 c20 -39 -22 -88 -53 -63 -15 13 -21 61 -8 73 13 14 52 7 61 -10z
m-40 -140 c-4 -34 -32 -52 -55 -37 -26 16 -27 40 -3 64 28 28 63 11 58 -27z
m-2882 12 c20 -31 10 -65 -20 -65 -41 0 -63 49 -34 78 18 18 36 14 54 -13z
m2838 -107 c16 -27 -11 -70 -43 -66 -20 2 -27 9 -29 31 -6 52 45 77 72 35z
m-2786 0 c16 -16 15 -53 -3 -68 -20 -17 -54 -3 -61 26 -11 42 34 72 64 42z
m67 -148 c0 -13 -8 -28 -17 -34 -40 -25 -80 43 -42 71 24 17 59 -5 59 -37z
m2655 36 c28 -35 -11 -93 -47 -70 -27 17 -28 50 -1 68 28 20 32 20 48 2z
m-2596 -112 c35 -35 10 -83 -35 -69 -24 8 -35 50 -19 70 16 19 35 19 54 -1z
m2534 -15 c4 -31 -18 -52 -50 -47 -15 2 -24 11 -26 26 -5 32 16 54 47 50 20
-2 27 -9 29 -29z m-2443 -100 c4 -5 4 -21 1 -35 -12 -45 -76 -26 -76 23 0 40
53 49 75 12z m2363 0 c4 -31 -18 -52 -50 -47 -15 2 -24 11 -26 26 -5 32 16 54
47 50 20 -2 27 -9 29 -29z m-2280 -112 c6 -53 -67 -57 -84 -5 -5 16 -1 27 16
40 20 16 25 17 44 5 12 -8 22 -26 24 -40z m2192 -2 c0 -28 -31 -49 -60 -40
-27 9 -26 50 2 69 28 20 58 4 58 -29z m-1983 -7 c71 -54 93 -84 93 -122 -1
-53 -49 -93 -98 -81 -39 10 -102 58 -102 78 0 31 28 30 66 -3 44 -38 78 -38
82 1 2 21 -7 35 -44 68 -26 22 -50 41 -53 41 -3 0 -30 -29 -60 -65 -29 -36
-58 -65 -63 -65 -18 0 -20 31 -2 58 20 30 114 132 122 132 3 0 29 -19 59 -42z
m1643 3 c8 -17 2 -25 -43 -61 -28 -23 -58 -52 -65 -66 -11 -22 -9 -27 22 -61
l34 -37 52 24 c58 27 63 32 54 54 -8 20 -38 21 -54 1 -14 -16 -56 -20 -64 -6
-4 5 -3 16 0 25 8 22 99 77 115 71 20 -8 78 -106 72 -121 -9 -24 -111 -86
-150 -91 -93 -12 -174 90 -133 168 12 21 126 119 140 119 5 0 14 -9 20 -19z
m245 -62 c13 -40 -44 -76 -73 -47 -16 16 -15 33 4 52 23 23 61 20 69 -5z
m-1718 -66 c4 -10 -8 -45 -31 -89 -21 -39 -35 -77 -32 -83 4 -6 24 -20 45 -30
48 -25 68 -48 53 -63 -6 -6 -21 -8 -34 -5 -39 10 -133 71 -136 89 -2 9 15 48
37 85 70 118 84 132 98 96z m1303 -99 c60 -136 52 -144 -88 -93 -46 17 -86 29
-88 26 -3 -3 6 -31 20 -63 21 -49 22 -61 11 -73 -7 -7 -18 -10 -25 -6 -19 11
-100 194 -93 210 8 22 40 18 118 -15 38 -17 77 -30 87 -30 19 0 18 6 -14 78
-20 46 -17 62 12 62 13 0 29 -25 60 -96z m-1126 1 c3 -9 -1 -43 -9 -76 -18
-79 -9 -104 44 -120 22 -6 47 -9 55 -6 18 7 41 53 56 115 8 32 16 42 31 42 27
0 32 -20 19 -71 -16 -64 -38 -106 -63 -124 -51 -36 -178 0 -205 58 -12 24 -11
38 4 95 9 37 21 75 26 85 11 21 34 22 42 2z m833 -17 c14 -19 63 -170 63 -195
0 -28 -18 -39 -35 -22 -7 8 -27 56 -45 107 -25 74 -29 96 -19 108 14 17 24 18
36 2z m-70 -40 c7 -6 13 -27 13 -48 0 -21 7 -43 15 -50 23 -19 19 -73 -8 -99
-37 -34 -203 -55 -225 -28 -15 19 -32 199 -20 215 6 6 31 13 57 13 25 1 60 5
76 9 34 9 74 4 92 -12z m-446 -77 l36 -73 22 61 c27 75 45 95 72 81 10 -6 21
-23 25 -38 3 -15 14 -62 25 -106 20 -84 19 -96 -11 -96 -15 0 -24 14 -37 60
-10 33 -20 60 -23 60 -3 0 -17 -27 -32 -61 -23 -52 -30 -60 -50 -57 -18 2 -28
16 -47 71 -25 72 -35 73 -46 6 -8 -44 -35 -72 -59 -63 -12 5 -16 13 -11 28 3
11 15 52 25 89 20 75 45 120 63 115 7 -2 28 -37 48 -77z"/>
<path d="M1698 2873 c7 -3 16 -2 19 1 4 3 -2 6 -13 5 -11 0 -14 -3 -6 -6z"/>
<path d="M1548 2563 l-3 -28 -360 -5 c-388 -5 -380 -4 -485 -64 -81 -45 -143
-126 -154 -198 -4 -26 -11 -50 -17 -53 -5 -4 -9 -17 -9 -31 l0 -24 195 0 c176
0 195 2 195 17 0 9 -8 25 -17 35 -13 15 -15 23 -6 36 9 15 41 17 334 17 l324
0 3 -37 c3 -33 7 -38 28 -38 l24 0 0 200 0 200 -24 0 c-19 0 -25 -6 -28 -27z"/>
<path d="M1630 2389 l0 -200 22 3 c17 2 24 12 28 33 l5 30 95 0 95 0 3 -90 c2
-49 0 -276 -3 -503 -7 -370 -9 -414 -24 -418 -33 -11 -46 -22 -49 -43 -3 -21
-3 -21 207 -21 135 0 212 4 216 10 11 17 -14 39 -48 42 l-32 3 0 150 0 150
205 0 205 0 0 -145 0 -145 -33 -3 c-37 -4 -51 -24 -32 -47 10 -12 47 -15 206
-15 180 0 194 1 194 18 0 25 -19 42 -47 42 l-23 0 0 518 c0 588 4 552 -88 653
-51 56 -100 86 -182 112 -36 12 -46 20 -48 41 -3 20 -9 26 -28 26 l-24 0 0
-200 0 -200 25 0 c21 0 25 5 25 30 0 34 22 49 45 30 12 -10 15 -50 15 -231 l0
-219 -207 2 -208 3 0 230 0 230 110 0 110 0 3 -37 c3 -33 7 -38 28 -38 l24 0
-2 198 -3 197 -27 3 c-23 3 -27 -1 -30 -25 l-3 -28 -332 -3 -333 -2 0 30 c0
27 -3 30 -30 30 l-30 0 0 -201z"/>
<path d="M2177 2233 c-4 -3 -7 -96 -7 -205 l0 -198 178 2 177 3 0 160 0 160
-87 3 c-75 2 -89 6 -98 22 -6 11 -9 25 -8 32 2 6 -10 15 -27 19 -40 9 -120 11
-128 2z"/>
<path d="M520 2106 c0 -14 4 -27 9 -30 4 -3 11 -26 15 -52 10 -77 94 -176 191
-227 l60 -31 247 -4 c205 -3 249 -6 259 -18 10 -12 10 -20 1 -35 -7 -10 -12
-28 -12 -39 0 -20 5 -20 197 -18 183 3 198 4 201 21 2 11 -5 25 -17 33 -12 9
-21 26 -21 39 0 39 -42 105 -106 164 -102 96 -101 96 -385 99 -230 3 -248 4
-264 22 -17 19 -17 21 -2 38 10 10 17 28 17 40 0 22 -2 22 -195 22 l-195 0 0
-24z"/>
<path d="M1290 1600 c0 -11 6 -29 13 -41 10 -17 9 -22 -8 -35 -16 -12 -76 -14
-369 -12 l-351 3 -5 30 c-4 24 -10 30 -30 30 l-25 0 -3 -165 c-4 -204 0 -230
33 -230 21 0 25 5 25 29 l0 30 398 3 c473 5 453 1 571 117 58 56 83 89 96 126
10 28 27 59 37 71 10 11 18 30 18 42 0 22 -1 22 -200 22 -194 0 -200 -1 -200
-20z"/>
<path d="M1848 403 l-48 -4 0 -52 c0 -75 7 -81 75 -73 66 7 75 11 75 32 0 12
-13 14 -62 12 -54 -3 -63 -1 -66 16 -5 23 14 36 54 36 17 0 37 6 43 13 12 15
5 28 -13 25 -6 -1 -32 -3 -58 -5z"/>
</g>
</svg>
