<?xml version="1.0" standalone="no"?>
<!DOCTYPE svg PUBLIC "-//W3C//DTD SVG 20010904//EN"
 "http://www.w3.org/TR/2001/REC-SVG-20010904/DTD/svg10.dtd">
<svg version="1.0" xmlns="http://www.w3.org/2000/svg"
 width="342.000000pt" height="350.000000pt" viewBox="0 0 342.000000 350.000000"
 preserveAspectRatio="xMidYMid meet">

<g transform="translate(0.000000,350.000000) scale(0.100000,-0.100000)"
fill="#000000" stroke="none">
<path d="M1500 3275 c-209 -32 -281 -54 -455 -142 -197 -100 -320 -195 -455
-354 -165 -194 -263 -388 -330 -656 -26 -109 -30 -140 -30 -268 0 -186 23
-346 72 -505 21 -69 133 -296 182 -369 61 -92 188 -227 204 -217 24 14 11 40
-56 110 -116 122 -250 371 -298 552 -14 54 -32 140 -40 189 -16 102 -18 315
-5 378 5 23 15 74 21 112 7 39 19 86 27 105 8 19 21 58 28 85 26 95 136 297
218 400 65 82 223 238 267 263 25 14 65 40 90 57 120 84 288 156 444 190 93
20 88 23 111 -85 40 -191 69 -258 126 -298 29 -20 44 -23 101 -20 58 3 72 8
99 33 17 17 37 42 44 56 13 24 52 183 69 283 l7 38 47 -6 c82 -11 217 -59 359
-129 118 -58 244 -152 378 -284 107 -104 142 -146 188 -225 126 -211 175 -352
203 -575 23 -185 10 -390 -37 -567 -32 -123 -109 -291 -186 -408 -43 -65 -228
-275 -255 -289 -20 -11 -24 -34 -8 -44 23 -14 54 12 167 138 169 187 268 362
328 577 65 232 69 553 9 789 -32 126 -118 317 -200 442 -92 140 -263 312 -400
401 -181 119 -429 221 -599 248 -83 14 -332 10 -435 -5z m246 -145 c10 -46 37
-100 47 -93 6 3 7 1 4 -4 -4 -6 0 -28 9 -48 30 -73 -13 -140 -91 -140 -32 0
-50 6 -69 24 -43 41 -43 74 0 159 21 42 39 81 39 86 0 6 6 26 14 45 14 31 15
32 28 15 8 -11 16 -30 19 -44z"/>
<path d="M1698 2873 c7 -3 16 -2 19 1 4 3 -2 6 -13 5 -11 0 -14 -3 -6 -6z"/>
<path d="M1548 2563 l-3 -28 -360 -5 c-388 -5 -380 -4 -485 -64 -81 -45 -143
-126 -154 -198 -4 -26 -11 -50 -17 -53 -5 -4 -9 -17 -9 -31 l0 -24 195 0 c176
0 195 2 195 17 0 9 -8 25 -17 35 -13 15 -15 23 -6 36 9 15 41 17 334 17 l324
0 3 -37 c3 -33 7 -38 28 -38 l24 0 0 200 0 200 -24 0 c-19 0 -25 -6 -28 -27z"/>
<path d="M1630 2389 l0 -200 22 3 c17 2 24 12 28 33 l5 30 95 0 95 0 3 -90 c2
-49 0 -276 -3 -503 -7 -370 -9 -414 -24 -418 -33 -11 -46 -22 -49 -43 -3 -21
-3 -21 206 -21 115 0 212 3 215 6 14 14 -15 43 -46 46 l-32 3 0 150 0 150 205
0 205 0 0 -145 0 -145 -33 -3 c-37 -4 -51 -24 -32 -47 10 -12 47 -15 206 -15
180 0 194 1 194 18 0 25 -19 42 -47 42 l-23 0 0 517 c0 589 5 552 -90 656 -49
54 -99 84 -180 110 -36 12 -46 20 -48 41 -3 20 -9 26 -28 26 l-24 0 0 -200 0
-200 25 0 c21 0 25 5 25 30 0 34 22 49 45 30 12 -10 15 -50 15 -231 l0 -219
-207 2 -208 3 0 230 0 230 110 0 110 0 3 -37 c3 -33 7 -38 28 -38 l24 0 -2
198 -3 197 -27 3 c-23 3 -27 -1 -30 -25 l-3 -28 -332 -3 -333 -2 0 30 c0 27
-3 30 -30 30 l-30 0 0 -201z"/>
<path d="M520 2106 c0 -14 4 -27 9 -30 4 -3 11 -26 15 -52 10 -77 94 -176 191
-227 l60 -31 247 -4 c205 -3 249 -6 259 -18 10 -12 10 -20 1 -35 -7 -10 -12
-28 -12 -39 0 -20 5 -20 197 -18 183 3 198 4 201 21 2 11 -5 25 -17 33 -12 9
-21 26 -21 39 0 39 -42 105 -106 164 -102 96 -101 96 -386 99 -228 3 -247 5
-264 23 -16 18 -16 20 -1 37 10 10 17 28 17 40 0 22 -2 22 -195 22 l-195 0 0
-24z"/>
<path d="M1290 1600 c0 -11 6 -29 13 -41 10 -17 9 -22 -8 -35 -16 -12 -76 -14
-369 -12 l-351 3 -5 30 c-4 24 -10 30 -30 30 l-25 0 -3 -155 c-2 -85 0 -174 3
-197 5 -37 10 -43 31 -43 20 0 24 5 24 29 l0 30 393 3 c474 4 459 1 575 116
59 57 84 90 97 127 10 28 27 59 37 71 10 11 18 30 18 42 0 22 -1 22 -200 22
-194 0 -200 -1 -200 -20z"/>
</g>
</svg>
