<?xml version="1.0" encoding="iso-8859-1"?>
<!-- Generator: Adobe Illustrator 19.0.0, SVG Export Plug-In . SVG Version: 6.00 Build 0)  -->
<svg version="1.1" id="Layer_1" xmlns="http://www.w3.org/2000/svg" xmlns:xlink="http://www.w3.org/1999/xlink" x="0px" y="0px"
	 viewBox="0 0 512 512" style="enable-background:new 0 0 512 512;" xml:space="preserve">
<path style="fill:#35D8B9;" d="M353.721,230.426L256.06,89.713l-97.661,140.713c-32.788,47.241-27.06,111.178,13.602,151.84l0,0
	c46.424,46.425,121.693,46.425,168.118,0l0,0C380.781,341.604,386.508,277.668,353.721,230.426z"/>
<path style="fill:#2BBFA3;" d="M226.141,382.266L226.141,382.266c-14.473-40.662-16.511-104.599-4.841-151.84l34.76-140.713
	l-97.661,140.713c-32.788,47.241-27.06,111.178,13.602,151.84l0,0c23.213,23.213,53.635,34.819,84.059,34.819
	C245.232,417.085,234.403,405.479,226.141,382.266z"/>
<path style="fill:#333333;" d="M256.06,426.421c-32.848,0-65.696-12.503-90.703-37.51c-43.916-43.915-50.087-112.821-14.677-163.842
	l97.661-140.713c1.756-2.529,4.641-4.039,7.72-4.039c3.079,0,5.964,1.508,7.719,4.039l97.66,140.713
	c35.413,51.022,29.24,119.927-14.676,163.842C321.756,413.918,288.908,426.421,256.06,426.421z M256.06,106.193l-89.943,129.591
	c-30.223,43.546-24.955,102.357,12.527,139.838c42.688,42.688,112.145,42.685,154.83,0c37.482-37.481,42.751-96.292,12.527-139.838
	l0,0L256.06,106.193z"/>
<path style="fill:#FFFFFF;" d="M317.971,369.515c-2.405,0-4.81-0.917-6.645-2.752c-3.67-3.67-3.67-9.619,0.001-13.289
	c26.758-26.758,30.519-68.743,8.944-99.832l-18.937-27.284c-2.959-4.263-1.903-10.118,2.362-13.077
	c4.262-2.958,10.117-1.902,13.077,2.362l18.937,27.284c26.764,38.564,22.099,90.645-11.094,123.836
	C322.781,368.598,320.376,369.515,317.971,369.515z"/>
<path style="fill:#F4550F;" d="M437.08,74.981C388.727,26.629,324.44,0,256.06,0S123.393,26.629,75.041,74.981S0.06,187.62,0.06,256
	s26.629,132.667,74.981,181.019S187.68,512,256.06,512c68.381,0,132.667-26.629,181.02-74.981
	C536.894,337.205,536.894,174.795,437.08,74.981z M423.79,88.269c90.261,90.261,92.417,235.753,6.501,328.673L95.114,81.765
	c43.947-40.671,100.728-62.973,160.946-62.973C319.421,18.793,378.987,43.467,423.79,88.269z M88.329,423.731
	C43.526,378.928,18.851,319.361,18.851,256c0-60.218,22.302-117,62.974-160.946l335.177,335.178
	C324.084,516.148,178.591,513.992,88.329,423.731z"/>
<circle style="fill:#FFFFFF;" cx="289.631" cy="193.012" r="9.396"/>
<g>
</g>
<g>
</g>
<g>
</g>
<g>
</g>
<g>
</g>
<g>
</g>
<g>
</g>
<g>
</g>
<g>
</g>
<g>
</g>
<g>
</g>
<g>
</g>
<g>
</g>
<g>
</g>
<g>
</g>
</svg>
