<svg xmlns="http://www.w3.org/2000/svg" version="1.1" xmlns:xlink="http://www.w3.org/1999/xlink" width="512" height="512" x="0" y="0" viewBox="0 0 64 64" style="enable-background:new 0 0 512 512" xml:space="preserve" class=""><g><path d="M59.029 36.265a.993.993 0 0 0-.966.258l-3.37 3.37-2.868-.717-.718-2.869 3.37-3.369a1 1 0 0 0-.448-1.673A7.811 7.811 0 0 0 52 31a8.011 8.011 0 0 0-7.816 6.308 13.136 13.136 0 0 0-1.292-.77l.074-.28a1 1 0 0 0-.723-1.228l-4-1a.989.989 0 0 0-1.107.5L33 33.262v-2.054A11.08 11.08 0 0 0 36.786 27H38a3.991 3.991 0 0 0 2.333-7.235 24 24 0 0 0 .642-4.578.965.965 0 0 0 .013-.339l-.783-5.1A10.27 10.27 0 0 0 30 1h-6a10.269 10.269 0 0 0-10.2 8.754l-.783 5.094a.992.992 0 0 0 .049.487 8.012 8.012 0 0 0-.061.8 8.035 8.035 0 0 0 .239 1.941l.423 1.69A3.99 3.99 0 0 0 16 27h1.214A11.08 11.08 0 0 0 21 31.208v2.054l-4.136 1.272a.988.988 0 0 0-1.107-.5l-4 1a1 1 0 0 0-.723 1.228l.075.281A13.171 13.171 0 0 0 4 48.239V54a1 1 0 0 0 1 1v8h2v-8h6.32l-1.306 7.836 1.972.328L15.847 52h17.739l-4.463 4.463a3.828 3.828 0 1 0 5.414 5.414l4.511-4.511.966 5.8 1.972-.328-1.2-7.207.628-.631H47v8h2v-8a1 1 0 0 0 1-1v-5.76a13.126 13.126 0 0 0-.1-1.534A7.8 7.8 0 0 0 52 47a8.009 8.009 0 0 0 8-8 7.852 7.852 0 0 0-.264-2.028 1 1 0 0 0-.707-.707Zm-14.977 3.451a7.7 7.7 0 0 0 .278 1.54l-3.677 3.676 1.708-6.4a11.135 11.135 0 0 1 1.691 1.184Zm-5.324-3.5 2.044.511-2.942 11.028L35.586 50h-.3ZM28 41.851l2.219 2.774A1 1 0 0 0 31 45a.844.844 0 0 0 .087 0 1 1 0 0 0 .791-.517L36.3 36.37l.3.093L33.219 50H28ZM26 50h-5.219L17.4 36.463l.3-.093 4.423 8.109a1 1 0 0 0 .791.517A.844.844 0 0 0 23 45a1 1 0 0 0 .781-.375L26 41.851Zm8.35-14.23-3.508 6.43-2.4-3a18.922 18.922 0 0 0 3.944-4.037ZM16.566 16.151l-.749-.749A26.818 26.818 0 0 1 24.385 14h5.23a26.818 26.818 0 0 1 8.568 1.4l-.749.749a2.9 2.9 0 0 1-2.616.793l-1.683-.337a31.327 31.327 0 0 0-12.274 0l-1.677.337a2.9 2.9 0 0 1-2.618-.791ZM30 12.009c-.129 0-.256-.009-.385-.009h-5.23c-.129 0-.256.007-.385.009V9h6ZM38 25h-.426A10.966 10.966 0 0 0 38 22c0-.333-.011-.667-.029-1H38a2 2 0 0 1 0 4Zm0-6h-.239q-.045-.293-.1-.585a4.848 4.848 0 0 0 1.05-.736q-.111.687-.266 1.366A3.854 3.854 0 0 0 38 19ZM24 3h6a8.28 8.28 0 0 1 8.227 7.058l.527 3.428A28.788 28.788 0 0 0 32 12.1V8a1 1 0 0 0-1-1h-8a1 1 0 0 0-1 1v4.1a28.788 28.788 0 0 0-6.755 1.382l.527-3.427A8.279 8.279 0 0 1 24 3Zm-8.82 14.594a4.873 4.873 0 0 0 1.157.838q-.053.285-.1.572H16a4.041 4.041 0 0 0-.457.046ZM16 25a2 2 0 0 1 0-4h.029c-.018.333-.029.667-.029 1a10.966 10.966 0 0 0 .426 3Zm2-3a17.451 17.451 0 0 1 .264-3.018 4.914 4.914 0 0 0 1.311-.077l1.679-.337a29.46 29.46 0 0 1 11.489 0l1.685.338a4.908 4.908 0 0 0 .958.094c.118 0 .23-.026.347-.034A17.539 17.539 0 0 1 36 22a9 9 0 0 1-18 0Zm9 11a10.927 10.927 0 0 0 4-.764v1.436a16.929 16.929 0 0 1-4 4.086 16.929 16.929 0 0 1-4-4.086v-1.436A10.927 10.927 0 0 0 27 33Zm-5.387 2.166a18.922 18.922 0 0 0 3.944 4.034l-2.4 3-3.507-6.43Zm-6.341 1.047L18.719 50h-1.951l-3.54-13.276ZM6 53v-4.761a11.164 11.164 0 0 1 5.639-9.71l3.073 11.523a.99.99 0 0 0-.7.784L13.653 53Zm42-4.586V53h-4.586ZM52 45a5.8 5.8 0 0 1-2.15-.409 1 1 0 0 0-1.077.221l-15.65 15.651a1.829 1.829 0 1 1-2.586-2.586l15.65-15.65a1 1 0 0 0 .222-1.078A5.79 5.79 0 0 1 46 39a6.006 6.006 0 0 1 5.571-5.984l-2.278 2.277a1 1 0 0 0-.263.949l1 4a1 1 0 0 0 .727.728l4 1a.994.994 0 0 0 .95-.263l2.278-2.277A6.008 6.008 0 0 1 52 45Z" fill="#000000" opacity="0.23921568627450981" data-original="#000000" class=""></path></g></svg>